<?xml version="1.0" encoding="utf-8"?>
<!-- Generator: Adobe Illustrator 22.0.1, SVG Export Plug-In . SVG Version: 6.00 Build 0)  -->
<svg version="1.1" id="Layer_1" xmlns="http://www.w3.org/2000/svg" xmlns:xlink="http://www.w3.org/1999/xlink" x="0px" y="0px"
	 viewBox="0 0 290 110" enable-background="new 0 0 290 110" xml:space="preserve">
<g>
	<path fill="#FFFFFF" d="M15.5,42.3L14,32.8h1.7l3.1,6.2c0.9,1.9,2.9,2.2,5,2.2c2.9,0,5.3-1.5,5.3-4.3s-1.9-4.3-5.6-5.5l-2.1-0.7
		c-4.7-1.6-7.3-4.5-7.3-8.9c0-5.6,5.5-8.3,11.2-8.3c2.1,0,4.4,0.3,6.2,0.9l1.7,9h-1.7l-3.2-6.1c-0.6-1.2-2.2-1.4-3.8-1.4
		c-2.7,0-5,1.4-5,4.1c0,1.9,0.9,3.7,3.7,4.6l2.1,0.7c5.5,1.8,9.3,4,9.3,9.5c0,5.7-5.7,8.9-11.1,8.9C20.5,43.5,18.1,43.2,15.5,42.3z"
		/>
	<path fill="#FFFFFF" d="M40.1,14.3h6.1v28.8h-6.1V14.3z"/>
	<path fill="#FFFFFF" d="M60.5,17.1H50.2v-2.8h26.7v2.8H66.6v26h-6.1V17.1z"/>
	<path fill="#FFFFFF" d="M77.2,28.5c0-9.5,7.6-15,15.8-15c8.1,0,15.8,5.5,15.8,15s-7.6,15-15.8,15C84.9,43.5,77.2,38,77.2,28.5z
		 M102,29.9c0-9-3.8-14-9.2-14c-4.4,0-8.7,3-8.7,11.1c0,9,3.8,14,9.2,14C97.6,41,102,38.1,102,29.9z"/>
	<path fill="#FFFFFF" d="M124,14.3h6.1v28.8H124V14.3z"/>
	<path fill="#FFFFFF" d="M158.9,33.7V14.3h3.1v28.8h-3.1l-18.5-19.9v19.9h-3.1V14.3h3.1L158.9,33.7z"/>
	<path fill="#FFFFFF" d="M179.1,14.3h20.3v2.8h-14.2v9.7h12.7v2.8h-12.7v13.5h-6.1V14.3z"/>
	<path fill="#FFFFFF" d="M216.5,33.1h-10.9l-4,9.9h-3.3L210,14.3h5.1L227,43.1h-6.5L216.5,33.1z M215.3,30.3L211,19.8l-4.3,10.5
		H215.3z"/>
	<path fill="#FFFFFF" d="M230.4,42.3l-1.6-9.5h1.7l3.1,6.2c0.9,1.9,2.9,2.2,5,2.2c2.9,0,5.3-1.5,5.3-4.3s-1.9-4.3-5.6-5.5l-2.1-0.7
		c-4.7-1.6-7.3-4.5-7.3-8.9c0-5.6,5.5-8.3,11.2-8.3c2.1,0,4.4,0.3,6.2,0.9l1.7,9h-1.7l-3.2-6.1c-0.6-1.2-2.2-1.4-3.8-1.4
		c-2.7,0-5,1.4-5,4.1c0,1.9,0.9,3.7,3.7,4.6l2.1,0.7c5.5,1.8,9.3,4,9.3,9.5c0,5.7-5.7,8.9-11.1,8.9
		C235.4,43.5,232.9,43.2,230.4,42.3z"/>
	<path fill="#FFFFFF" d="M255,14.3h19.8v2.8h-13.7v9.7h11.4v2.8h-11.4v10.7h13.7v2.8H255V14.3z"/>
	<path fill="#FFFFFF" d="M15.4,96.1V67.3h9.2c10.2,0,17.6,5.1,17.6,14.2s-7.4,14.6-17.3,14.6H15.4z M24.6,93.4
		c6.4,0,10.8-3,10.8-11.8S31,69.9,24.6,69.9h-3.1v23.6H24.6z"/>
	<path fill="#FFFFFF" d="M47.6,67.3h6.1v28.8h-6.1V67.3z"/>
	<path fill="#FFFFFF" d="M70.8,95.3l-1.6-9.5H71l3.1,6.2c0.9,1.9,2.9,2.2,5,2.2c2.9,0,5.3-1.5,5.3-4.3s-1.9-4.3-5.6-5.5l-2.1-0.7
		c-4.7-1.6-7.3-4.5-7.3-8.9c0-5.6,5.5-8.3,11.2-8.3c2.1,0,4.4,0.3,6.2,0.9l1.7,9h-1.7l-3.2-6.1c-0.6-1.2-2.2-1.4-3.8-1.4
		c-2.7,0-5,1.4-5,4.1c0,1.9,0.9,3.7,3.7,4.6l2.1,0.7c5.5,1.8,9.3,4,9.3,9.5c0,5.7-5.7,8.9-11.1,8.9C75.9,96.5,73.4,96.2,70.8,95.3z"
		/>
	<path fill="#FFFFFF" d="M91.1,67.3h6.6l9.2,20.9l9.2-20.9h3.4l-12.7,28.8h-3L91.1,67.3z"/>
	<path fill="#FFFFFF" d="M123.2,67.3h6.1v28.8h-6.1V67.3z"/>
	<path fill="#FFFFFF" d="M136.5,67.3h6.1v26h13.3v2.8h-19.4V67.3z"/>
	<path fill="#FFFFFF" d="M158.7,85.5V67.3h6.1v17.8c0,6.6,2.7,8.5,7.6,8.5c6,0,8-3.3,8-9.3V67.3h3.1v17.7c0,7.9-4.1,11.6-12.7,11.6
		C163.1,96.5,158.7,93.2,158.7,85.5z"/>
	<path fill="#FFFFFF" d="M190.4,96.1V67.3h10.7c7.2,0,12.8,1.8,12.8,7.9s-5.5,8.3-12.8,8.3h-4.6v12.5H190.4z M196.5,80.9h4.3
		c4.1,0,6.3-1.7,6.3-5.5s-2.2-5.6-6.3-5.6h-4.3V80.9z"/>
	<path fill="#FFFFFF" d="M218.4,96.1V67.3h10.7c7.2,0,12.8,1.8,12.8,7.9s-5.5,8.3-12.8,8.3h-4.6v12.5H218.4z M224.5,80.9h4.3
		c4.1,0,6.3-1.7,6.3-5.5s-2.2-5.6-6.3-5.6h-4.3V80.9z"/>
	<path fill="#FFFFFF" d="M244.5,81.5c0-9.5,7.6-15,15.8-15c8.1,0,15.8,5.5,15.8,15s-7.6,15-15.8,15C252.1,96.5,244.5,91,244.5,81.5z
		 M269.2,82.9c0-9-3.8-14-9.2-14c-4.4,0-8.7,3-8.7,11.1c0,9,3.8,14,9.2,14C264.9,94,269.2,91.1,269.2,82.9z"/>
</g>
</svg>
