<?xml version="1.0" encoding="utf-8"?>
<!-- Generator: Adobe Illustrator 22.0.1, SVG Export Plug-In . SVG Version: 6.00 Build 0)  -->
<svg version="1.1" id="Layer_1" xmlns="http://www.w3.org/2000/svg" xmlns:xlink="http://www.w3.org/1999/xlink" x="0px" y="0px"
	 viewBox="0 0 870 80" enable-background="new 0 0 870 80" xml:space="preserve">
<g>
	<path fill="#FFFFFF" d="M13.7,61.8l-2.5-15.1H14l4.9,9.7c1.5,2.9,4.6,3.4,7.9,3.4c4.6,0,8.4-2.3,8.4-6.8c0-4.4-3.1-6.7-8.8-8.6
		l-3.3-1.1c-7.5-2.5-11.5-7.1-11.5-14c0-8.8,8.6-13.1,17.7-13.1c3.3,0,6.9,0.4,9.8,1.4L41.7,32H39l-5.1-9.6c-1-1.9-3.5-2.3-6.1-2.3
		c-4.3,0-7.9,2.2-7.9,6.4c0,2.9,1.4,5.8,5.8,7.3l3.3,1.1c8.7,2.8,14.8,6.4,14.8,14.9c0,8.9-8.9,14-17.5,14
		C21.6,63.8,17.7,63.3,13.7,61.8z"/>
	<path fill="#FFFFFF" d="M52.6,17.5h9.6V63h-9.6V17.5z"/>
	<path fill="#FFFFFF" d="M84.8,21.9H68.5v-4.4h42.1v4.4H94.4v41h-9.6V21.9z"/>
	<path fill="#FFFFFF" d="M111.2,40c0-15,12.1-23.8,24.9-23.8C148.9,16.2,161,25,161,40s-12.1,23.8-24.9,23.8
		C123.2,63.8,111.2,55,111.2,40z M150.2,42.3c0-14.2-6-22.1-14.6-22.1c-6.9,0-13.7,4.7-13.7,17.5c0,14.2,6,22.1,14.6,22.1
		C143.4,59.8,150.2,55.1,150.2,42.3z"/>
	<path fill="#FFFFFF" d="M185,17.5h9.6V63H185V17.5z"/>
	<path fill="#FFFFFF" d="M240.2,48.3V17.5h4.9V63h-4.9l-29.3-31.4V63H206V17.5h4.9L240.2,48.3z"/>
	<path fill="#FFFFFF" d="M272,17.5h32v4.4h-22.4v15.2h20v4.4h-20V63H272V17.5z"/>
	<path fill="#FFFFFF" d="M331,47.3h-17.2L307.5,63h-5.2l18.6-45.5h8.1L347.6,63h-10.2L331,47.3z M329.2,42.9l-6.8-16.6l-6.7,16.6
		H329.2z"/>
	<path fill="#FFFFFF" d="M353,61.8l-2.5-15.1h2.7l4.9,9.7c1.5,2.9,4.6,3.4,7.9,3.4c4.6,0,8.4-2.3,8.4-6.8c0-4.4-3.1-6.7-8.8-8.6
		l-3.3-1.1c-7.5-2.5-11.5-7.1-11.5-14c0-8.8,8.6-13.1,17.7-13.1c3.3,0,6.9,0.4,9.8,1.4l2.6,14.3h-2.7l-5.1-9.6
		c-1-1.9-3.5-2.3-6.1-2.3c-4.3,0-7.9,2.2-7.9,6.4c0,2.9,1.4,5.8,5.8,7.3l3.3,1.1c8.7,2.8,14.8,6.4,14.8,14.9c0,8.9-8.9,14-17.5,14
		C360.9,63.8,357,63.3,353,61.8z"/>
	<path fill="#FFFFFF" d="M391.8,17.5H423v4.4h-21.6v15.2h17.9v4.4h-17.9v16.9H423V63h-31.2V17.5z"/>
	<path fill="#FFFFFF" d="M447.3,63V17.5h14.5c16.1,0,27.8,8,27.8,22.4S477.9,63,462.3,63H447.3z M461.8,58.8c10.1,0,17-4.8,17-18.6
		c0-13.8-7-18.6-17-18.6h-4.9v37.2H461.8z"/>
	<path fill="#FFFFFF" d="M498,17.5h9.6V63H498V17.5z"/>
	<path fill="#FFFFFF" d="M534.7,61.8l-2.5-15.1h2.7l4.9,9.7c1.5,2.9,4.6,3.4,7.9,3.4c4.6,0,8.4-2.3,8.4-6.8c0-4.4-3.1-6.7-8.8-8.6
		l-3.3-1.1c-7.5-2.5-11.5-7.1-11.5-14c0-8.8,8.6-13.1,17.7-13.1c3.3,0,6.9,0.4,9.8,1.4l2.6,14.3H560l-5.1-9.6
		c-1-1.9-3.5-2.3-6.1-2.3c-4.3,0-7.9,2.2-7.9,6.4c0,2.9,1.4,5.8,5.8,7.3l3.3,1.1c8.7,2.8,14.8,6.4,14.8,14.9c0,8.9-8.9,14-17.5,14
		C542.7,63.8,538.8,63.3,534.7,61.8z"/>
	<path fill="#FFFFFF" d="M566.8,17.5h10.5l14.6,33.1l14.6-33.1h5.3L591.7,63h-4.7L566.8,17.5z"/>
	<path fill="#FFFFFF" d="M617.4,17.5h9.6V63h-9.6V17.5z"/>
	<path fill="#FFFFFF" d="M638.4,17.5h9.6v41h21V63h-30.6V17.5z"/>
	<path fill="#FFFFFF" d="M673.5,46.2V17.5h9.6v28.1c0,10.5,4.2,13.4,12.1,13.4c9.4,0,12.6-5.2,12.6-14.6V17.5h4.9v27.9
		c0,12.5-6.4,18.4-20,18.4C680.5,63.8,673.5,58.5,673.5,46.2z"/>
	<path fill="#FFFFFF" d="M723.6,63V17.5h16.9c11.4,0,20.2,2.9,20.2,12.5s-8.8,13.1-20.2,13.1h-7.3V63H723.6z M733.2,39h6.8
		c6.5,0,10-2.6,10-8.6c0-6-3.4-8.8-10-8.8h-6.8V39z"/>
	<path fill="#FFFFFF" d="M767.7,63V17.5h16.9c11.4,0,20.2,2.9,20.2,12.5s-8.8,13.1-20.2,13.1h-7.3V63H767.7z M777.3,39h6.8
		c6.5,0,10-2.6,10-8.6c0-6-3.4-8.8-10-8.8h-6.8V39z"/>
	<path fill="#FFFFFF" d="M808.9,40c0-15,12.1-23.8,24.9-23.8c12.8,0,24.9,8.8,24.9,23.8s-12.1,23.8-24.9,23.8
		C821,63.8,808.9,55,808.9,40z M848,42.3c0-14.2-6-22.1-14.6-22.1c-6.9,0-13.7,4.7-13.7,17.5c0,14.2,6,22.1,14.6,22.1
		C841.2,59.8,848,55.1,848,42.3z"/>
</g>
</svg>
